# xmcd
#
# Track frame offsets:
#	150
#	16409
#	36156
#	53653
#	73745
#	87090
#	107892
#	126466
#	155946
#	179260
#	194955
#	217754
#	238834
#
# Disc length: 3470
#
# Revision: 1
# Processed by: cddbd v1.5.1PL0 Copyright (c) Steve Scherf et al.
# Submitted via: EasyCDDAExtractor 4.5.0.2
# Normalized: r0:DSETVAR1
#
DISCID=c10d8c0d
DTITLE=Various Artist - Common Thread: The Songs of The Eagles
DYEAR=1993
DGENRE=Rock
TTITLE0=Travis Tritt - Take It Easy
TTITLE1=Little Texas - Peaceful Easy Feeling
TTITLE2=Clint Black - Desperado
TTITLE3=John Anderson - Heartache Tonight
TTITLE4=Alan Jackson - Tequila Sunrise
TTITLE5=Suzy Bogguss - Take It To The Limit
TTITLE6=Vince Gill - I Can't Tell You Why
TTITLE7=Diamond Rio - Lyin' Eyes
TTITLE8=Trisha Yearwood - New Kid In Town
TTITLE9=Billy Dean - Saturday Night
TTITLE10=Tanya Tucker - Already Gone
TTITLE11=Brooks and Dunn - Best Of My Love
TTITLE12=Lorrie Morgan - The Sad Cafe
EXTD=
EXTT0=
EXTT1=
EXTT2=
EXTT3=
EXTT4=
EXTT5=
EXTT6=
EXTT7=
EXTT8=
EXTT9=
EXTT10=
EXTT11=
EXTT12=
PLAYORDER=
